<svg id="visual" viewBox="0 0 900 600" width="900" height="800" xmlns="http://www.w3.org/2000/svg" xmlns:xlink="http://www.w3.org/1999/xlink" version="1.1"><g stroke-width="1" stroke-linejoin="bevel"><path d="M391 323L337 368L405 381Z" fill="#050505" stroke="#050505"></path><path d="M391 323L335 282L337 368Z" fill="#000000" stroke="#000000"></path><path d="M372 538L492 435L405 381Z" fill="#1d1d1d" stroke="#1d1d1d"></path><path d="M405 381L512 313L391 323Z" fill="#0a0a0a" stroke="#0a0a0a"></path><path d="M492 435L512 313L405 381Z" fill="#0a0a0a" stroke="#0a0a0a"></path><path d="M391 323L385 197L335 282Z" fill="#1a1a1a" stroke="#1a1a1a"></path><path d="M512 313L385 197L391 323Z" fill="#000000" stroke="#000000"></path><path d="M385 197L293 212L335 282Z" fill="#0e0e0e" stroke="#0e0e0e"></path><path d="M335 282L194 278L337 368Z" fill="#0a0a0a" stroke="#0a0a0a"></path><path d="M283 520L372 538L337 368Z" fill="#151515" stroke="#151515"></path><path d="M337 368L372 538L405 381Z" fill="#1d1d1d" stroke="#1d1d1d"></path><path d="M204 490L283 520L337 368Z" fill="#0a0a0a" stroke="#0a0a0a"></path><path d="M372 538L487 512L492 435Z" fill="#1f1f1f" stroke="#1f1f1f"></path><path d="M492 435L562 425L512 313Z" fill="#0e0e0e" stroke="#0e0e0e"></path><path d="M293 212L194 278L335 282Z" fill="#121212" stroke="#121212"></path><path d="M487 512L562 425L492 435Z" fill="#1d1d1d" stroke="#1d1d1d"></path><path d="M601 337L532 234L512 313Z" fill="#000000" stroke="#000000"></path><path d="M512 313L532 234L385 197Z" fill="#0e0e0e" stroke="#0e0e0e"></path><path d="M163 418L204 490L337 368Z" fill="#222222" stroke="#222222"></path><path d="M194 278L163 418L337 368Z" fill="#050505" stroke="#050505"></path><path d="M562 425L601 337L512 313Z" fill="#1a1a1a" stroke="#1a1a1a"></path><path d="M262 600L386 600L372 538Z" fill="#0e0e0e" stroke="#0e0e0e"></path><path d="M372 538L386 600L487 512Z" fill="#0a0a0a" stroke="#0a0a0a"></path><path d="M262 600L372 538L283 520Z" fill="#0a0a0a" stroke="#0a0a0a"></path><path d="M194 278L130 336L163 418Z" fill="#1f1f1f" stroke="#1f1f1f"></path><path d="M538 96L365 111L385 197Z" fill="#1d1d1d" stroke="#1d1d1d"></path><path d="M385 197L365 111L293 212Z" fill="#000000" stroke="#000000"></path><path d="M293 212L167 184L194 278Z" fill="#1f1f1f" stroke="#1f1f1f"></path><path d="M194 278L123 221L130 336Z" fill="#050505" stroke="#050505"></path><path d="M163 418L138 480L204 490Z" fill="#0e0e0e" stroke="#0e0e0e"></path><path d="M233 600L262 600L283 520Z" fill="#1a1a1a" stroke="#1a1a1a"></path><path d="M60 379L138 480L163 418Z" fill="#222222" stroke="#222222"></path><path d="M233 600L283 520L204 490Z" fill="#1d1d1d" stroke="#1d1d1d"></path><path d="M601 337L617 239L532 234Z" fill="#151515" stroke="#151515"></path><path d="M532 234L538 96L385 197Z" fill="#1f1f1f" stroke="#1f1f1f"></path><path d="M180 119L167 184L293 212Z" fill="#0a0a0a" stroke="#0a0a0a"></path><path d="M95 600L233 600L204 490Z" fill="#1d1d1d" stroke="#1d1d1d"></path><path d="M487 512L597 533L562 425Z" fill="#181818" stroke="#181818"></path><path d="M737 420L716 321L601 337Z" fill="#1a1a1a" stroke="#1a1a1a"></path><path d="M601 337L716 321L617 239Z" fill="#1a1a1a" stroke="#1a1a1a"></path><path d="M530 600L597 533L487 512Z" fill="#1d1d1d" stroke="#1d1d1d"></path><path d="M167 184L123 221L194 278Z" fill="#000000" stroke="#000000"></path><path d="M130 336L60 379L163 418Z" fill="#1a1a1a" stroke="#1a1a1a"></path><path d="M386 600L530 600L487 512Z" fill="#1f1f1f" stroke="#1f1f1f"></path><path d="M365 111L323 66L293 212Z" fill="#181818" stroke="#181818"></path><path d="M439 0L323 66L365 111Z" fill="#050505" stroke="#050505"></path><path d="M323 66L180 119L293 212Z" fill="#050505" stroke="#050505"></path><path d="M167 184L62 130L123 221Z" fill="#1d1d1d" stroke="#1d1d1d"></path><path d="M617 239L538 96L532 234Z" fill="#1a1a1a" stroke="#1a1a1a"></path><path d="M0 297L60 379L130 336Z" fill="#1d1d1d" stroke="#1d1d1d"></path><path d="M530 600L604 600L597 533Z" fill="#050505" stroke="#050505"></path><path d="M737 420L601 337L562 425Z" fill="#1a1a1a" stroke="#1a1a1a"></path><path d="M673 167L562 72L538 96Z" fill="#222222" stroke="#222222"></path><path d="M538 96L439 0L365 111Z" fill="#0e0e0e" stroke="#0e0e0e"></path><path d="M737 420L562 425L716 520Z" fill="#1a1a1a" stroke="#1a1a1a"></path><path d="M617 239L673 167L538 96Z" fill="#000000" stroke="#000000"></path><path d="M760 280L673 167L617 239Z" fill="#0a0a0a" stroke="#0a0a0a"></path><path d="M491 0L439 0L538 96Z" fill="#0e0e0e" stroke="#0e0e0e"></path><path d="M323 66L212 0L180 119Z" fill="#181818" stroke="#181818"></path><path d="M716 520L562 425L597 533Z" fill="#0e0e0e" stroke="#0e0e0e"></path><path d="M138 480L95 600L204 490Z" fill="#0a0a0a" stroke="#0a0a0a"></path><path d="M0 475L95 600L138 480Z" fill="#1d1d1d" stroke="#1d1d1d"></path><path d="M439 0L278 0L323 66Z" fill="#222222" stroke="#222222"></path><path d="M562 72L491 0L538 96Z" fill="#0a0a0a" stroke="#0a0a0a"></path><path d="M606 0L491 0L562 72Z" fill="#0e0e0e" stroke="#0e0e0e"></path><path d="M680 600L716 520L597 533Z" fill="#1a1a1a" stroke="#1a1a1a"></path><path d="M0 198L0 297L123 221Z" fill="#050505" stroke="#050505"></path><path d="M123 221L0 297L130 336Z" fill="#050505" stroke="#050505"></path><path d="M60 379L0 475L138 480Z" fill="#000000" stroke="#000000"></path><path d="M62 130L167 184L180 119Z" fill="#222222" stroke="#222222"></path><path d="M0 297L0 425L60 379Z" fill="#151515" stroke="#151515"></path><path d="M98 0L62 130L180 119Z" fill="#181818" stroke="#181818"></path><path d="M604 600L680 600L597 533Z" fill="#151515" stroke="#151515"></path><path d="M0 425L0 475L60 379Z" fill="#151515" stroke="#151515"></path><path d="M278 0L212 0L323 66Z" fill="#1a1a1a" stroke="#1a1a1a"></path><path d="M792 387L760 280L716 321Z" fill="#1a1a1a" stroke="#1a1a1a"></path><path d="M716 321L760 280L617 239Z" fill="#181818" stroke="#181818"></path><path d="M62 130L0 198L123 221Z" fill="#181818" stroke="#181818"></path><path d="M760 280L761 198L673 167Z" fill="#1a1a1a" stroke="#1a1a1a"></path><path d="M673 167L704 97L562 72Z" fill="#000000" stroke="#000000"></path><path d="M737 420L792 387L716 321Z" fill="#000000" stroke="#000000"></path><path d="M900 170L834 138L761 198Z" fill="#0e0e0e" stroke="#0e0e0e"></path><path d="M835 496L792 387L737 420Z" fill="#1a1a1a" stroke="#1a1a1a"></path><path d="M835 496L737 420L716 520Z" fill="#1d1d1d" stroke="#1d1d1d"></path><path d="M761 198L704 97L673 167Z" fill="#050505" stroke="#050505"></path><path d="M704 97L606 0L562 72Z" fill="#0e0e0e" stroke="#0e0e0e"></path><path d="M0 475L0 600L95 600Z" fill="#151515" stroke="#151515"></path><path d="M212 0L98 0L180 119Z" fill="#121212" stroke="#121212"></path><path d="M62 130L0 71L0 198Z" fill="#151515" stroke="#151515"></path><path d="M98 0L0 71L62 130Z" fill="#222222" stroke="#222222"></path><path d="M785 0L683 0L704 97Z" fill="#0e0e0e" stroke="#0e0e0e"></path><path d="M704 97L683 0L606 0Z" fill="#1d1d1d" stroke="#1d1d1d"></path><path d="M827 600L835 496L716 520Z" fill="#181818" stroke="#181818"></path><path d="M900 296L761 198L760 280Z" fill="#151515" stroke="#151515"></path><path d="M900 296L760 280L792 387Z" fill="#0e0e0e" stroke="#0e0e0e"></path><path d="M761 198L834 138L704 97Z" fill="#050505" stroke="#050505"></path><path d="M680 600L827 600L716 520Z" fill="#000000" stroke="#000000"></path><path d="M98 0L0 0L0 71Z" fill="#000000" stroke="#000000"></path><path d="M900 464L900 397L835 496Z" fill="#000000" stroke="#000000"></path><path d="M835 496L900 397L792 387Z" fill="#050505" stroke="#050505"></path><path d="M900 397L900 296L792 387Z" fill="#000000" stroke="#000000"></path><path d="M900 600L900 464L835 496Z" fill="#1a1a1a" stroke="#1a1a1a"></path><path d="M900 85L785 0L834 138Z" fill="#1a1a1a" stroke="#1a1a1a"></path><path d="M834 138L785 0L704 97Z" fill="#222222" stroke="#222222"></path><path d="M900 296L900 170L761 198Z" fill="#1a1a1a" stroke="#1a1a1a"></path><path d="M827 600L900 600L835 496Z" fill="#0e0e0e" stroke="#0e0e0e"></path><path d="M900 170L900 85L834 138Z" fill="#000000" stroke="#000000"></path><path d="M900 85L900 0L785 0Z" fill="#151515" stroke="#151515"></path></g></svg>