<svg xmlns="http://www.w3.org/2000/svg" viewBox="0 0 256 256" width="50" height="50">
  <rect x="24" y="24" width="208" height="208" rx="44" fill="#2496ED"/>
  <rect x="72" y="78" width="28" height="28" rx="4" fill="#EAF6FF"/>
  <rect x="104" y="78" width="28" height="28" rx="4" fill="#EAF6FF"/>
  <rect x="136" y="78" width="28" height="28" rx="4" fill="#EAF6FF"/>
  <path d="M80 126c10-16 32-24 62-24 22 0 42 6 58 18 10 8 16 20 16 34 0 25-18 42-52 42-31 0-58-10-79-29-9-8-13-18-13-29 0-5 2-9 8-12z" fill="#FFFFFF" opacity="0.95"/>
  <text x="128" y="160" text-anchor="middle" dominant-baseline="middle" fill="#2496ED" font-family="Arial, Helvetica, sans-serif" font-size="54" font-weight="700">docker</text>
</svg>
